<svg width="94" height="94" viewBox="0 0 94 94" fill="none" xmlns="http://www.w3.org/2000/svg">
<path d="M66.5832 82.25V74.4167C66.5832 70.2616 64.9326 66.2767 61.9945 63.3387C59.0564 60.4006 55.0716 58.75 50.9165 58.75H19.5832C15.4281 58.75 11.4432 60.4006 8.50516 63.3387C5.56709 66.2767 3.9165 70.2616 3.9165 74.4167V82.25M90.0832 82.25V74.4167C90.0806 70.9454 88.9252 67.5734 86.7985 64.8299C84.6718 62.0864 81.6942 60.127 78.3332 59.2592M62.6665 12.2592C66.0365 13.122 69.0234 15.0819 71.1564 17.8299C73.2894 20.5779 74.4472 23.9576 74.4472 27.4363C74.4472 30.9149 73.2894 34.2946 71.1564 37.0426C69.0234 39.7906 66.0365 41.7505 62.6665 42.6133M50.9165 27.4167C50.9165 36.0691 43.9023 43.0833 35.2498 43.0833C26.5974 43.0833 19.5832 36.0691 19.5832 27.4167C19.5832 18.7642 26.5974 11.75 35.2498 11.75C43.9023 11.75 50.9165 18.7642 50.9165 27.4167Z" stroke="white" stroke-width="4" stroke-linecap="round" stroke-linejoin="round"/>
</svg>
