<svg width="94" height="94" viewBox="0 0 94 94" fill="none" xmlns="http://www.w3.org/2000/svg">
<path d="M35.2501 3.91667V15.6667M58.7501 3.91667V15.6667M35.2501 78.3333V90.0833M58.7501 78.3333V90.0833M78.3334 35.25H90.0834M78.3334 54.8333H90.0834M3.91675 35.25H15.6667M3.91675 54.8333H15.6667M23.5001 15.6667H70.5001C74.8263 15.6667 78.3334 19.1738 78.3334 23.5V70.5C78.3334 74.8262 74.8263 78.3333 70.5001 78.3333H23.5001C19.1739 78.3333 15.6667 74.8262 15.6667 70.5V23.5C15.6667 19.1738 19.1739 15.6667 23.5001 15.6667ZM35.2501 35.25H58.7501V58.75H35.2501V35.25Z" stroke="white" stroke-width="4" stroke-linecap="round" stroke-linejoin="round"/>
</svg>
